<?xml version="1.0" encoding="utf-8"?>
<!-- Generator: Adobe Illustrator 16.0.0, SVG Export Plug-In . SVG Version: 6.00 Build 0)  -->
<!DOCTYPE svg PUBLIC "-//W3C//DTD SVG 1.1//EN" "http://www.w3.org/Graphics/SVG/1.1/DTD/svg11.dtd">
<svg version="1.1" id="Layer_1" xmlns="http://www.w3.org/2000/svg" xmlns:xlink="http://www.w3.org/1999/xlink" x="0px" y="0px"
	 width="1100px" height="244.615px" viewBox="0 0 1100 244.615" enable-background="new 0 0 1100 244.615" xml:space="preserve">
<g>
	<path fill="#555555" d="M27.632,22.043h103.593c26.608,0,48.496,7.06,65.66,21.176c17.163,14.118,25.746,31.435,25.746,51.949
		c0,20.517-8.583,37.833-25.746,51.949c-17.164,14.118-39.052,21.176-65.66,21.176h-30.468v36.563
		c0,14.22,8.124,21.328,24.375,21.328v3.047h-97.5v-3.047c16.249,0,24.375-7.108,24.375-21.328V43.676
		c-0.609-12.39-8.736-18.586-24.375-18.586V22.043z M100.757,25.09v140.156h30.468c17.672,0,29.25-5.484,34.734-16.453
		c5.28-10.155,7.922-28.031,7.922-53.625s-2.642-43.468-7.922-53.625c-5.484-10.969-17.063-16.453-34.734-16.453H100.757z"/>
	<path fill="#555555" d="M414.584,229.231h-60.938c-2.033,0-4.266-1.624-6.703-4.875c-2.438-3.249-3.861-4.875-4.266-4.875
		c-10.359,7.517-22.954,11.273-37.781,11.273c-25.799,0-46.465-5.789-62.004-17.367s-23.309-24.577-23.309-39
		c0-14.42,7.717-27.167,23.156-38.238c15.437-11.069,36.155-16.605,62.156-16.605c12.592,0,24.779,2.54,36.563,7.617v-7.617
		c0-31.483-13.204-47.227-39.609-47.227c-16.86,0-33.009,4.368-48.445,13.102l-1.828-2.742
		c16.248-8.936,33.006-13.406,50.273-13.406c58.904,0,88.359,26.915,88.359,80.742v54.844c0,14.22,8.124,21.328,24.375,21.328
		V229.231z M341.459,130.512c-11.578-5.28-23.766-7.922-36.563-7.922c-15.032,0-25.594,5.689-31.688,17.063
		c-3.252,5.484-4.875,17.063-4.875,34.734c0,21.533,2.64,35.548,7.922,42.047c6.296,7.517,15.844,11.273,28.641,11.273
		c15.437,0,27.826-3.858,37.172-11.578c-0.407-12.592-0.609-24.68-0.609-36.258V130.512z"/>
	<path fill="#555555" d="M540.114,93.338c3.309-4.468,4.965-8.022,4.965-10.662c0-5.889-7.039-8.836-21.113-8.836v-3.047h51.886
		v3.047c-6.906,0-12.391,1.121-16.453,3.363c-4.063,2.243-9.547,8.048-16.453,17.42l-23.108,31.642l39.848,79.167
		c3.451,6.715,6.703,11.597,9.75,14.648c4.061,4.071,10.256,6.104,18.586,6.104v3.047h-97.568v-3.047
		c11.783,0,17.675-2.944,17.675-8.836c0-2.233-0.814-5.789-2.44-10.664l-18.521-36.31L460.38,206.75
		c-3.108,3.847-4.663,7.289-4.663,10.323c0,6.075,6.529,9.11,19.593,9.11v3.047h-51.89v-3.047c5.077,0,8.936-0.202,11.578-0.609
		c6.905-1.421,14.42-8.124,22.547-20.109l28.005-38.291l-36.536-72.616c-4.875-9.545-8.736-15.387-11.578-17.52
		c-2.845-2.133-7.518-3.199-14.016-3.199v-3.047h57.929c7.727,0,14.946,7.505,21.659,22.514l15.213,29.759L540.114,93.338z"/>
	<path fill="#555555" d="M713.785,93.338c3.309-4.468,4.965-8.022,4.965-10.662c0-5.889-7.039-8.836-21.113-8.836v-3.047h51.887
		v3.047c-6.906,0-12.391,1.121-16.453,3.363c-4.063,2.243-9.547,8.048-16.453,17.42l-23.107,31.642l39.848,79.167
		c3.451,6.715,6.703,11.597,9.75,14.648c4.061,4.071,10.256,6.104,18.586,6.104v3.047h-97.568v-3.047
		c11.783,0,17.676-2.944,17.676-8.836c0-2.233-0.814-5.789-2.441-10.664l-18.521-36.31l-26.785,36.376
		c-3.109,3.847-4.664,7.289-4.664,10.323c0,6.075,6.529,9.11,19.594,9.11v3.047h-51.891v-3.047c5.078,0,8.936-0.202,11.578-0.609
		c6.906-1.421,14.42-8.124,22.547-20.109l28.006-38.291l-36.537-72.616c-4.875-9.545-8.736-15.387-11.578-17.52
		c-2.844-2.133-7.518-3.199-14.016-3.199v-3.047h57.93c7.727,0,14.945,7.505,21.658,22.514l15.213,29.759L713.785,93.338z"/>
	<path fill="#555555" d="M773.811,70.793h60.938c8.125,0,12.188,8.126,12.188,24.375v109.688c0,14.22,8.125,21.328,24.375,21.328
		v3.047h-97.5v-3.047c16.248,0,24.375-7.108,24.375-21.328V95.168c0-14.218-8.127-21.328-24.375-21.328V70.793z M805.346,39.258
		c-4.775-4.772-7.16-10.512-7.16-17.215s2.385-12.44,7.16-17.215c4.773-4.772,10.512-7.16,17.215-7.16S835,0.056,839.775,4.829
		c4.773,4.775,7.16,10.512,7.16,17.215s-2.387,12.442-7.16,17.215c-4.775,4.775-10.512,7.16-17.215,7.16
		S810.119,44.033,805.346,39.258z"/>
	<path fill="#555555" d="M962.717,230.754c-27.422,0-48.547-7.008-63.375-21.023c-14.625-14.016-21.938-33.92-21.938-59.719
		c0-25.594,7.412-45.499,22.242-59.719c14.828-14.016,35.852-21.023,63.07-21.023c27.217,0,48.24,7.008,63.07,21.023
		c14.828,14.22,22.242,34.125,22.242,59.719H926.154c0,35.953,2.031,56.774,6.094,62.461c7.516,10.157,17.672,15.234,30.469,15.234
		c15.234,0,29.555-3.757,42.961-11.273c13.406-7.515,24.07-17.367,31.992-29.555l2.438,1.523
		c-8.127,12.797-19.096,23.056-32.906,30.773C993.389,226.896,978.561,230.754,962.717,230.754z M926.154,146.965h73.125
		c0-30.874-1.523-49.562-4.57-56.063c-5.689-12.39-16.354-18.586-31.992-18.586c-15.439,0-25.391,5.18-29.859,15.539
		C928.387,98.623,926.154,118.325,926.154,146.965z"/>
</g>
</svg>
